# xmcd
#
# Track frame offsets: 
#        150
#        13593
#        34994
#        57729
#        80835
#        100117
#        114811
#        133828
#        153692
#        167706
#        186605
#        207718
#        223666
#
# Disc length: 3326 seconds
#
# Revision: 1
# Processed by: cddbd v1.5.2PL0 Copyright (c) Steve Scherf et al.
# Submitted via: ExactAudioCopy v0.95b4
#
DISCID=c80cfc0d
DTITLE=Filisko and Noden - Filisko and Noden Live
DYEAR=2006
DGENRE=Blues
TTITLE0=Bay Rum Blues
TTITLE1=Canned Heat Blues
TTITLE2=Woopin' The Blues
TTITLE3=Kindhearted Woman
TTITLE4=Truckin' My Blues Away
TTITLE5=I Heard The Angles Singing
TTITLE6=Mountain Dew
TTITLE7=Write Me A Few Lines
TTITLE8=Stovepipe Blues
TTITLE9=Walk On
TTITLE10=Jesus On The Mainline
TTITLE11=You May Leave But This Will Bring You Back
TTITLE12=Cut You Loose
EXTD=
EXTT0=
EXTT1=
EXTT2=
EXTT3=
EXTT4=
EXTT5=
EXTT6=
EXTT7=
EXTT8=
EXTT9=
EXTT10=
EXTT11=
EXTT12=
PLAYORDER=
